<?xml version="1.0" encoding="UTF-8" standalone="no"?>
<!-- Created with Inkscape (http://www.inkscape.org/) -->

<svg
   width="2500mm"
   height="1500mm"
   viewBox="0 0 2500 1500"
   version="1.1"
   id="svg1"
   sodipodi:docname="TheSynthesistMark.svg"
   inkscape:version="1.4.2 (f4327f4, 2025-05-13)"
   xmlns:inkscape="http://www.inkscape.org/namespaces/inkscape"
   xmlns:sodipodi="http://sodipodi.sourceforge.net/DTD/sodipodi-0.dtd"
   xmlns="http://www.w3.org/2000/svg"
   xmlns:svg="http://www.w3.org/2000/svg">
  <sodipodi:namedview
     id="namedview1"
     pagecolor="#ffffff"
     bordercolor="#000000"
     borderopacity="0.25"
     inkscape:showpageshadow="2"
     inkscape:pageopacity="0.0"
     inkscape:pagecheckerboard="0"
     inkscape:deskcolor="#d1d1d1"
     inkscape:document-units="mm"
     inkscape:zoom="0.0625"
     inkscape:cx="3848"
     inkscape:cy="1720"
     inkscape:window-width="1920"
     inkscape:window-height="1009"
     inkscape:window-x="-8"
     inkscape:window-y="-8"
     inkscape:window-maximized="1"
     inkscape:current-layer="layer1"
     showgrid="false" />
  <defs
     id="defs1">
    <filter
       inkscape:collect="always"
       style="color-interpolation-filters:sRGB"
       id="filter1"
       x="-0.012565256"
       y="-0.054900507"
       width="1.0251305"
       height="1.109801">
      <feGaussianBlur
         inkscape:collect="always"
         stdDeviation="0.012844238"
         id="feGaussianBlur1" />
    </filter>
  </defs>
  <g
     inkscape:label="Layer 1"
     inkscape:groupmode="layer"
     id="layer1">
    <g
       id="g1"
       transform="matrix(18.442257,0,0,18.442257,-168.69041,88.51918)">
      <ellipse
         style="fill:none;fill-opacity:1;stroke:#000000;stroke-width:2.565;stroke-dasharray:none;stroke-opacity:1;filter:url(#filter1)"
         id="path1"
         cx="76.2463"
         cy="49.035439"
         rx="52.260223"
         ry="11.960966" />
      <path
         id="path112"
         style="fill:none;fill-opacity:1;stroke:#000000;stroke-width:5.265;stroke-dasharray:none;stroke-opacity:1"
         d="m 63.306584,16.589427 51.959996,30 H 63.306584 Z"
         sodipodi:nodetypes="cccc" />
      <path
         style="fill:#000000;fill-opacity:1;stroke:#000000;stroke-width:2.165;stroke-linecap:round;stroke-linejoin:round;stroke-miterlimit:4;stroke-dasharray:none;stroke-opacity:1"
         d="m 24.040895,48.643052 8.606078,0.18709"
         id="path115" />
      <path
         style="fill:#000000;fill-opacity:1;stroke:#000000;stroke-width:2.165;stroke-linecap:round;stroke-linejoin:round;stroke-miterlimit:4;stroke-dasharray:none;stroke-opacity:1"
         d="m 31.612309,55.257302 c 0.374179,-0.187089 7.10937,-2.712786 7.10937,-2.712786"
         id="path116" />
      <path
         style="fill:#000000;fill-opacity:1;stroke:#000000;stroke-width:2.165;stroke-linecap:round;stroke-linejoin:round;stroke-miterlimit:4;stroke-dasharray:none;stroke-opacity:1"
         d="m 31.45262,42.837631 7.857722,3.648228"
         id="path117" />
      <path
         style="fill:#000000;fill-opacity:1;stroke:#000000;stroke-width:2.365;stroke-linecap:round;stroke-linejoin:round;stroke-miterlimit:4;stroke-dasharray:none;stroke-opacity:1"
         d="m 43.646456,58.355615 3.367595,-3.461142"
         id="path118" />
      <path
         style="fill:#000000;fill-opacity:1;stroke:#000000;stroke-width:1.965;stroke-linecap:round;stroke-linejoin:round;stroke-miterlimit:4;stroke-dasharray:none;stroke-opacity:1"
         d="m 43.052764,40.117329 2.670397,3.98524"
         id="path119" />
      <path
         style="opacity:1;fill:#000000;fill-opacity:1;stroke:#000000;stroke-width:1.57877;stroke-linecap:round;stroke-linejoin:round;stroke-miterlimit:4;stroke-dasharray:none;stroke-opacity:1"
         d="M 61.471358,48.352659 33.689659,50.593256 61.645744,47.439053"
         id="path123"
         sodipodi:nodetypes="ccc" />
      <path
         id="path2"
         style="fill:none;fill-rule:evenodd;stroke:none;stroke-width:0.1;stroke-linejoin:round"
         d="m 53.028637,58.335476 c -0.645001,0.870114 8.689662,0.401931 14.27372,0.846671 5.584056,0.44474 12.013969,-0.523595 17.35453,-1.019733 5.34056,-0.496138 19.283933,0.131476 18.190683,-0.73046"
         sodipodi:nodetypes="cssc" />
      <g
         id="text2"
         style="opacity:1;stroke:#000000;stroke-width:0.5;stroke-dasharray:none;stroke-opacity:1"
         transform="translate(7.2964579,-1.3096207)">
        <path
           style="font-size:8.46667px;font-family:'Bookman Old Style';-inkscape-font-specification:'Bookman Old Style';baseline-shift:baseline;display:inline;overflow:visible;fill-rule:evenodd;stroke:#000000;stroke-width:0.5;stroke-linejoin:round;stroke-dasharray:none;stroke-opacity:1;enable-background:accumulate;stop-color:#000000;stop-opacity:1"
           d="m 54.014746,52.687406 0.287433,0.03358 0.01851,0.197789 3.514893,0.410675 0.0554,-0.189153 0.299752,0.03502 0.406907,1.75406 -0.384909,0.08822 q -0.188221,-0.704598 -0.522007,-1.018305 -0.333307,-0.317813 -0.904066,-0.3845 -0.238159,-0.02783 -0.285726,-0.01257 -0.04709,0.01115 -0.0729,0.05392 -0.0217,0.04325 -0.05001,0.285514 l -0.464408,3.974786 q -0.0331,0.283327 -0.01588,0.385234 0.02134,0.102386 0.07258,0.162483 0.05125,0.0601 0.14692,0.09625 0.100256,0.03252 0.448801,0.07741 l -0.0403,0.34492 -2.209127,-0.258111 0.0403,-0.34492 q 0.365931,0.03859 0.450453,0.02766 0.148514,-0.02427 0.22354,-0.132047 0.07503,-0.107777 0.111008,-0.415741 l 0.474483,-4.061016 q 0.02207,-0.188884 0.0063,-0.232345 -0.01163,-0.04298 -0.06261,-0.06975 -0.0464,-0.03039 -0.206537,-0.0491 -0.447574,-0.05229 -0.732015,0.03101 -0.280335,0.08379 -0.550638,0.331077 -0.270303,0.247288 -0.48999,0.666979 l -0.354205,-0.174576 z m 11.198876,0.59632 0.297532,0.0086 0.390909,1.789686 -0.383519,0.10474 Q 65.176469,54.42828 64.585537,53.981107 64.10002,53.607284 63.49669,53.58988 q -0.363651,-0.01049 -0.656733,0.113402 -0.292963,0.11976 -0.443558,0.322208 -0.150594,0.202447 -0.156792,0.417332 -0.0056,0.194223 0.100727,0.379267 0.106329,0.185044 0.329558,0.332102 0.223348,0.142925 0.735487,0.310724 l 1.069377,0.349308 q 0.196686,0.06358 0.567966,0.239719 0.375413,0.176262 0.580801,0.3683 0.205507,0.187905 0.317598,0.459967 0.11221,0.267931 0.10327,0.577861 -0.01979,0.685978 -0.638019,1.185123 -0.613979,0.495133 -1.568563,0.467596 -0.491755,-0.01418 -0.876147,-0.165892 -0.384273,-0.155839 -0.824215,-0.532484 l -0.205944,0.544126 -0.289268,-0.0083 -0.324591,-2.081417 0.386578,-0.06743 q 0.194182,0.580483 0.529741,0.991338 0.339691,0.410975 0.755235,0.629754 0.419796,0.214766 0.85783,0.227402 0.595065,0.01716 1.051735,-0.329479 0.380618,-0.290937 0.392419,-0.700044 0.01085,-0.376048 -0.250844,-0.623476 -0.265825,-0.247546 -0.962372,-0.474431 L 63.05345,56.195078 q -0.860532,-0.277109 -1.204594,-0.679939 -0.344062,-0.402829 -0.329399,-0.911114 0.01144,-0.39671 0.252513,-0.724759 0.241189,-0.332181 0.727104,-0.545635 0.485914,-0.213454 1.056185,-0.197004 0.479358,0.01383 0.912624,0.19176 0.306592,0.124647 0.560734,0.347042 z m 4.220808,0.08311 0.289313,-0.0066 0.04575,0.193312 3.537888,-0.08049 0.02864,-0.195006 0.301712,-0.0069 0.646112,1.680726 -0.368965,0.14072 q -0.284069,-0.671707 -0.658117,-0.936119 -0.374141,-0.268545 -0.948635,-0.255474 -0.239717,0.0055 -0.28471,0.02715 -0.04509,0.01757 -0.06472,0.0635 -0.0155,0.04584 -0.0099,0.28969 l 0.09103,4.000789 q 0.0065,0.28518 0.03768,0.383715 0.03532,0.09844 0.09441,0.150854 0.05909,0.05241 0.158842,0.07495 0.103796,0.01832 0.455199,0.01445 l 0.0079,0.347176 -2.223579,0.05059 -0.0079,-0.347176 q 0.367747,-0.0125 0.449938,-0.03505 0.143716,-0.04462 0.203079,-0.161758 0.05936,-0.117136 0.05231,-0.427114 l -0.093,-4.087583 q -0.0043,-0.190121 -0.02593,-0.230981 -0.01747,-0.04095 -0.07167,-0.0604 -0.05016,-0.02367 -0.211349,-0.02 -0.450502,0.01025 -0.72065,0.132181 -0.266015,0.121838 -0.499432,0.404206 -0.233416,0.282368 -0.392809,0.72846 l -0.374983,-0.123795 z m 11.241321,-0.588997 0.296093,-0.03046 0.621932,1.723074 -0.366497,0.154066 q -0.438461,-0.70712 -1.082869,-1.073049 -0.530294,-0.307016 -1.130706,-0.245253 -0.361893,0.03723 -0.636225,0.198436 -0.274755,0.157097 -0.397538,0.377524 -0.122783,0.220427 -0.100785,0.434272 0.01988,0.193284 0.149531,0.362808 0.129648,0.169525 0.370214,0.28608 0.240143,0.112443 0.769847,0.211723 l 1.105914,0.206245 q 0.203318,0.03727 0.594469,0.163269 0.395264,0.125578 0.624034,0.289062 0.228346,0.159372 0.375103,0.414411 0.146334,0.250927 0.178062,0.559358 0.07022,0.682661 -0.477311,1.258475 -0.543844,0.571279 -1.493812,0.669 -0.489378,0.05034 -0.890328,-0.04972 -0.401373,-0.104169 -0.886853,-0.419952 l -0.132908,0.566411 -0.287869,0.02961 -0.594393,-2.020978 0.374417,-0.117478 q 0.268534,0.550051 0.655011,0.913421 0.39059,0.362947 0.831207,0.525418 0.444308,0.157936 0.880224,0.113095 0.592188,-0.06092 0.999525,-0.464384 0.339236,-0.338279 0.297356,-0.745408 -0.0385,-0.37423 -0.330339,-0.585253 -0.295955,-0.2106 -1.016217,-0.344306 L 78.915478,55.94702 Q 78.026065,55.785 77.63221,55.430701 q -0.393856,-0.354299 -0.445889,-0.860126 -0.04061,-0.394792 0.155419,-0.751587 0.195606,-0.360908 0.64938,-0.636163 0.453773,-0.275254 1.021287,-0.333633 0.47704,-0.04907 0.929877,0.07058 0.320276,0.08342 0.601356,0.270615 z"
           id="path3" />
        <path
           style="font-size:8.46667px;font-family:'Bookman Old Style';-inkscape-font-specification:'Bookman Old Style';baseline-shift:baseline;display:inline;overflow:visible;fill-rule:evenodd;stroke:#000000;stroke-width:0.5;stroke-linejoin:round;stroke-dasharray:none;stroke-opacity:1;enable-background:accumulate;stop-color:#000000;stop-opacity:1"
           d="m 54.042969,52.439453 a 0.250025,0.250025 0 0 0 -0.251953,0.138672 l -0.789063,1.613281 a 0.250025,0.250025 0 0 0 0.113281,0.333985 l 0.355469,0.175781 a 0.250025,0.250025 0 0 0 0.332031,-0.109375 c 0.136277,-0.260344 0.284381,-0.457574 0.4375,-0.597656 0.15832,-0.14484 0.308215,-0.232394 0.451172,-0.275391 0.142145,-0.04163 0.35569,-0.05581 0.632813,-0.02344 0.04601,0.0054 0.02812,-0.0022 0.04883,0.0039 -0.0018,0.02293 -0.0022,0.03892 -0.0059,0.07031 l -0.472656,4.060547 c -0.02205,0.188754 -0.07143,0.307142 -0.06836,0.302734 -0.01056,0.01516 -0.01292,0.01994 -0.05664,0.02734 0.01991,-0.0032 -0.150764,-0.0044 -0.386719,-0.0293 a 0.250025,0.250025 0 0 0 -0.273437,0.220703 l -0.04102,0.34375 a 0.250025,0.250025 0 0 0 0.21875,0.277344 l 2.208985,0.257813 a 0.250025,0.250025 0 0 0 0.277343,-0.21875 l 0.04102,-0.345703 a 0.250025,0.250025 0 0 0 -0.216797,-0.275391 c -0.22564,-0.02906 -0.377931,-0.06207 -0.398437,-0.06836 -0.0019,-8.47e-4 -0.0022,8.13e-4 -0.0039,0 -0.01995,-0.0094 -0.03485,-0.01917 -0.03516,-0.01953 1.65e-4,1.93e-4 -0.0087,-0.01838 -0.01563,-0.04297 v -0.0039 c -7.86e-4,-0.0075 -0.0032,-0.132291 0.01758,-0.310547 l 0.464844,-3.974609 c 0.006,-0.05141 0.01041,-0.08185 0.01563,-0.117187 0.03434,0.0027 0.06443,0.0038 0.115234,0.0098 0.34061,0.0398 0.582821,0.147687 0.759766,0.316406 a 0.250025,0.250025 0 0 0 0.002,0.002 c 0.171549,0.161229 0.332814,0.45732 0.451172,0.90039 a 0.250025,0.250025 0 0 0 0.298828,0.179688 l 0.384766,-0.08789 a 0.250025,0.250025 0 0 0 0.1875,-0.300781 l -0.408203,-1.753906 a 0.250025,0.250025 0 0 0 -0.212891,-0.191407 l -0.300781,-0.03516 a 0.250025,0.250025 0 0 0 -0.269531,0.177734 l 0.0039,-0.01367 -3.103516,-0.363282 v 0.0039 a 0.250025,0.250025 0 0 0 -0.21875,-0.22461 z m 26.902343,0.05859 -0.294921,0.03125 A 0.250025,0.250025 0 0 0 80.4375,52.701172 l -0.04883,0.15039 c -0.126974,-0.0606 -0.246472,-0.138316 -0.382813,-0.173828 -0.331014,-0.08746 -0.672921,-0.113778 -1.019531,-0.07813 -0.411381,0.04232 -0.789672,0.165735 -1.125,0.369141 -0.329881,0.200103 -0.581925,0.44258 -0.738281,0.730469 -0.152932,0.278354 -0.217594,0.584934 -0.185547,0.896484 0.04065,0.395178 0.224864,0.749384 0.527344,1.021484 0.318047,0.286105 0.788099,0.463567 1.40625,0.576172 l 1.05664,0.189453 c 0.462169,0.08579 0.776007,0.203514 0.916016,0.302735 2.69e-4,1.91e-4 0.0017,-1.91e-4 0.002,0 0.14027,0.102187 0.207099,0.217054 0.226563,0.40625 0.02017,0.196059 -0.0376,0.356491 -0.22461,0.542969 -0.232992,0.230777 -0.504899,0.357116 -0.849609,0.392578 -0.251663,0.02589 -0.505388,-0.006 -0.769531,-0.09961 h -0.002 c -0.257374,-0.09553 -0.50436,-0.250161 -0.742187,-0.470703 l -0.002,-0.002 c -0.232059,-0.218653 -0.432251,-0.497034 -0.59961,-0.839844 a 0.250025,0.250025 0 0 0 -0.300781,-0.128906 l -0.373047,0.117188 a 0.250025,0.250025 0 0 0 -0.166015,0.308593 l 0.59375,2.021485 a 0.250025,0.250025 0 0 0 0.265625,0.177734 l 0.289062,-0.0293 a 0.250025,0.250025 0 0 0 0.216797,-0.191406 l 0.0625,-0.267578 c 0.221306,0.119727 0.446553,0.253231 0.652344,0.30664 a 0.250025,0.250025 0 0 0 0.002,0 c 0.30004,0.07488 0.626626,0.09264 0.976562,0.05664 0.677811,-0.06972 1.240661,-0.317746 1.648438,-0.746094 0.402695,-0.423496 0.599235,-0.929016 0.544922,-1.457031 -0.02445,-0.237673 -0.09489,-0.459205 -0.210938,-0.658203 -0.114092,-0.198273 -0.26339,-0.364702 -0.445312,-0.492188 -0.183292,-0.130984 -0.413278,-0.235234 -0.69336,-0.324218 -0.265952,-0.08567 -0.468276,-0.143146 -0.625,-0.171875 l -1.105468,-0.205078 c -0.343063,-0.0643 -0.58723,-0.13635 -0.708985,-0.19336 -0.131722,-0.06427 -0.221845,-0.135815 -0.279297,-0.210937 -0.06233,-0.0815 -0.09125,-0.155095 -0.09961,-0.236328 -0.0089,-0.08677 0.01022,-0.175728 0.07227,-0.28711 0.05556,-0.09975 0.149373,-0.193562 0.302734,-0.28125 a 0.250025,0.250025 0 0 0 0.002,-0.002 c 0.148737,-0.0874 0.324037,-0.144296 0.535156,-0.166016 0.350878,-0.03609 0.668637,0.03235 0.980469,0.212891 a 0.250025,0.250025 0 0 0 0.002,0.002 c 0.390649,0.221831 0.720562,0.545119 0.994141,0.986328 a 0.250025,0.250025 0 0 0 0.308594,0.09961 l 0.367187,-0.154297 a 0.250025,0.250025 0 0 0 0.136719,-0.316406 l -0.62119,-1.722601 A 0.250025,0.250025 0 0 0 80.945312,52.498047 Z M 63.5625,52.886719 c -0.413379,-0.01192 -0.804983,0.06101 -1.164063,0.21875 -0.353719,0.155382 -0.635393,0.36151 -0.828125,0.626953 -0.187357,0.255577 -0.291771,0.552798 -0.300781,0.865234 -0.01145,0.397098 0.124433,0.770707 0.388672,1.080078 0.277838,0.325294 0.720282,0.563266 1.318359,0.75586 L 64,56.759766 c 0.447811,0.145864 0.743745,0.303149 0.869141,0.419921 0.126183,0.119885 0.17737,0.243137 0.171875,0.433594 -0.0057,0.197012 -0.0851,0.347432 -0.294922,0.507813 -0.260789,0.197451 -0.546882,0.289266 -0.892578,0.279297 -0.253517,-0.0073 -0.499755,-0.07315 -0.75,-0.201172 -0.2439,-0.128831 -0.469935,-0.315001 -0.677735,-0.566407 -0.201445,-0.247172 -0.363345,-0.548353 -0.484375,-0.910156 a 0.250025,0.250025 0 0 0 -0.279297,-0.167969 l -0.386718,0.06836 a 0.250025,0.250025 0 0 0 -0.205079,0.285156 l 0.324219,2.080078 a 0.250025,0.250025 0 0 0 0.240235,0.210938 l 0.289062,0.0098 a 0.250025,0.250025 0 0 0 0.242188,-0.162109 l 0.09766,-0.257813 c 0.203056,0.147015 0.407106,0.30902 0.603515,0.388672 a 0.250025,0.250025 0 0 0 0.002,0.002 c 0.28765,0.113531 0.609299,0.173455 0.960937,0.183594 0.681104,0.01965 1.272058,-0.152184 1.732422,-0.523437 0.454691,-0.367108 0.717115,-0.842466 0.732422,-1.373047 0.0069,-0.238166 -0.03457,-0.467695 -0.123047,-0.679688 v -0.002 c -0.08713,-0.210884 -0.213674,-0.395067 -0.376953,-0.544922 -0.164205,-0.153531 -0.379307,-0.287443 -0.644531,-0.412109 h -0.002 c -0.250726,-0.11893 -0.444703,-0.203064 -0.595707,-0.251988 h -0.002 l -1.068359,-0.34961 c -0.330533,-0.108296 -0.562101,-0.208829 -0.675781,-0.28125 l -0.002,-0.002 c -0.122152,-0.08096 -0.200933,-0.164102 -0.248046,-0.246093 -0.05112,-0.08896 -0.06876,-0.166415 -0.06641,-0.248047 0.0025,-0.08719 0.03133,-0.173095 0.107422,-0.275391 0.06815,-0.09162 0.172413,-0.171434 0.335938,-0.238281 a 0.250025,0.250025 0 0 0 0.0039,-0.002 c 0.158901,-0.06717 0.340591,-0.09987 0.552734,-0.09375 0.352584,0.01017 0.657858,0.120022 0.94336,0.339843 a 0.250025,0.250025 0 0 0 0.002,0 c 0.358229,0.271082 0.64203,0.636124 0.855469,1.109375 a 0.250025,0.250025 0 0 0 0.292968,0.138672 l 0.384766,-0.105468 a 0.250025,0.250025 0 0 0 0.177734,-0.292969 l -0.390625,-1.791016 a 0.250025,0.250025 0 0 0 -0.238281,-0.195312 l -0.296875,-0.0098 a 0.250025,0.250025 0 0 0 -0.232422,0.144531 l -0.06641,0.140625 c -0.118313,-0.07706 -0.228398,-0.167453 -0.359375,-0.220703 -0.316709,-0.130063 -0.651705,-0.200889 -1,-0.210937 z m -9.425781,0.121093 a 0.250025,0.250025 0 0 0 0.154297,0.160157 l 0.503906,0.05859 c -0.07622,0.01012 -0.174563,-0.0087 -0.244141,0.01172 -0.230421,0.06887 -0.446853,0.2023 -0.648437,0.386719 -0.07594,0.06947 -0.130614,0.184977 -0.199219,0.269531 z m 19.496093,0.01367 -0.302734,0.0059 a 0.250025,0.250025 0 0 0 -0.242187,0.214843 l 0.002,-0.01367 -3.123047,0.07031 v 0.0039 a 0.250025,0.250025 0 0 0 -0.248094,-0.19339 l -0.289063,0.0078 a 0.250025,0.250025 0 0 0 -0.232421,0.171875 l -0.556641,1.708985 a 0.250025,0.250025 0 0 0 0.158203,0.314453 l 0.375,0.123047 a 0.250025,0.250025 0 0 0 0.314453,-0.152344 c 0.09887,-0.276721 0.217385,-0.494343 0.34961,-0.654297 0.136756,-0.165436 0.274499,-0.273549 0.410156,-0.335937 0.134999,-0.06093 0.344113,-0.103029 0.623047,-0.109375 0.04639,-0.0011 0.0275,-0.0051 0.04883,-0.002 0.0013,0.0228 0.0032,0.03714 0.0039,0.06836 l 0.09375,4.087891 c 0.0043,0.18999 -0.02782,0.313378 -0.02539,0.308593 -0.0075,0.01473 -0.01666,0.02264 -0.04687,0.0332 1.28e-4,-3.4e-5 -0.0021,3.4e-5 -0.002,0 0.02345,-0.0067 -0.149174,0.0192 -0.388672,0.02734 a 0.250025,0.250025 0 0 0 -0.242187,0.25586 l 0.0078,0.345703 a 0.250025,0.250025 0 0 0 0.25586,0.246093 l 2.222656,-0.05078 a 0.250025,0.250025 0 0 0 0.244141,-0.255859 l -0.0078,-0.347656 A 0.250025,0.250025 0 0 0 72.783203,58.65625 c -0.228556,0.0025 -0.386316,-0.0084 -0.40625,-0.01172 h -0.002 c -0.0194,-0.0063 -0.03676,-0.01531 -0.03711,-0.01563 1.94e-4,1.73e-4 -0.01096,-0.01474 -0.02148,-0.03906 -0.0014,-0.0043 -0.0232,-0.130829 -0.02734,-0.3125 l -0.08984,-4.001953 c -0.0012,-0.05202 -2.72e-4,-0.08332 0,-0.119141 0.03421,-0.0021 0.06465,-0.0047 0.115234,-0.0059 0.342839,-0.0078 0.598253,0.06642 0.796875,0.208984 a 0.250025,0.250025 0 0 0 0.002,0.002 c 0.192242,0.135895 0.393636,0.405738 0.572266,0.828125 a 0.250025,0.250025 0 0 0 0.318359,0.136719 l 0.369141,-0.140625 a 0.250025,0.250025 0 0 0 0.144531,-0.324219 l -0.646484,-1.679687 a 0.250025,0.250025 0 0 0 -0.238282,-0.160157 z m 7.201172,0.08203 0.44336,1.228515 c -0.285627,-0.403272 -0.603164,-0.763175 -1.003907,-0.992187 0.04226,0.02347 0.08975,0.03121 0.13086,0.05859 a 0.250025,0.250025 0 0 0 0.376953,-0.130859 z m -1.582031,0.0098 c 0.211607,-0.0028 0.423781,-0.0049 0.626953,0.04883 0.135949,0.03541 0.258809,0.104228 0.382813,0.171875 -0.31192,-0.17906 -0.660501,-0.211609 -1.009766,-0.220703 z m -23.576172,0.16211 0.02148,0.01172 c -0.006,-0.0039 -0.0099,-3.81e-4 -0.01563,-0.0039 -0.0025,-0.0014 -0.0033,-0.0065 -0.0059,-0.0078 z m 0.05078,0.06055 0.646485,0.07422 c -0.06043,0.03249 -0.125582,0.06313 -0.158203,0.117188 a 0.250025,0.250025 0 0 0 -0.0098,0.01758 c -0.03942,0.07856 -0.03716,0.104691 -0.04687,0.160156 -0.0097,0.05546 -0.01953,0.123471 -0.0293,0.207031 l -0.46289,3.97461 c -0.02305,0.197278 -0.03783,0.325614 -0.01563,0.457031 a 0.250025,0.250025 0 0 0 0.002,0.0098 c 0.02039,0.09782 0.05843,0.193073 0.126953,0.273437 0.0079,0.0093 0.02083,0.01093 0.0293,0.01953 l -0.796875,-0.0918 c 0.08018,-0.04141 0.173057,-0.06266 0.224609,-0.136718 0.103109,-0.148111 0.128378,-0.307432 0.154297,-0.529297 l 0.474609,-4.060547 c 0.0079,-0.06747 0.01229,-0.124913 0.01367,-0.175781 0.0013,-0.04624 0.0027,-0.08561 -0.01953,-0.15625 -0.02165,-0.07397 -0.07921,-0.116905 -0.132813,-0.160157 z m 22.423829,0.05078 c -0.153386,0.107907 -0.303293,0.21977 -0.388672,0.373047 -0.101669,0.182521 -0.151265,0.383672 -0.13086,0.582031 0.01815,0.176479 0.08868,0.345698 0.199219,0.490234 0.114964,0.150325 0.271665,0.266665 0.458984,0.357422 a 0.250025,0.250025 0 0 0 0.0039,0.002 c 0.198435,0.09291 0.466869,0.162394 0.830078,0.230469 l 1.105469,0.207031 a 0.250025,0.250025 0 0 0 0.002,0 c 0.114367,0.02096 0.306918,0.07392 0.5625,0.15625 0.246937,0.07845 0.432952,0.166912 0.554687,0.253906 a 0.250025,0.250025 0 0 0 0.002,0.002 c 0.12152,0.08481 0.221625,0.193029 0.302735,0.333984 a 0.250025,0.250025 0 0 0 0,0.002 c 0.07906,0.135571 0.126676,0.285417 0.144531,0.458984 0.03925,0.381587 -0.08204,0.714923 -0.408203,1.058594 -0.04354,0.04574 -0.135619,0.04137 -0.183594,0.08203 0.257818,-0.26276 0.398433,-0.593829 0.363281,-0.935546 -0.03176,-0.308697 -0.184448,-0.582979 -0.43164,-0.761719 a 0.250025,0.250025 0 0 0 -0.002,-0.002 C 80.879767,56.095888 80.516823,55.98294 80.019531,55.890625 a 0.250025,0.250025 0 0 0 -0.002,0 L 78.96089,55.701172 h -0.002 c -0.566379,-0.103454 -0.953364,-0.271008 -1.160156,-0.457031 -0.222661,-0.200298 -0.334555,-0.419961 -0.363281,-0.699219 -0.0221,-0.214839 0.01656,-0.408096 0.125,-0.605469 a 0.250025,0.250025 0 0 0 0.002,-0.002 c 0.104501,-0.192812 0.283884,-0.374379 0.558594,-0.541016 0.0086,-0.0052 0.02059,-0.0047 0.0293,-0.0098 z m -20.074219,0.01367 -0.0039,0.01367 -0.01367,-0.002 a 0.250025,0.250025 0 0 0 0.01758,-0.01172 z m 5.679687,0.0293 c 0.211415,0.02479 0.421718,0.05059 0.617188,0.13086 0.128911,0.05241 0.240379,0.136526 0.353515,0.21875 -0.285514,-0.21728 -0.626223,-0.295327 -0.970703,-0.34961 z m -5.757812,0.02148 0.259765,1.125 c -0.114508,-0.27951 -0.212566,-0.586226 -0.394531,-0.757813 -0.190083,-0.181246 -0.472202,-0.244336 -0.74414,-0.320312 l 0.6875,0.08008 a 0.250025,0.250025 0 0 0 0.191406,-0.126953 z m 15.55664,0.05859 -0.002,0.01367 h -0.01367 a 0.250025,0.250025 0 0 0 0.01563,-0.01367 z m -10.923828,0.04687 c -0.1667,0.08697 -0.330586,0.179212 -0.435547,0.320312 -0.124697,0.167634 -0.199328,0.359271 -0.205078,0.558594 -0.0051,0.177332 0.04216,0.353951 0.132813,0.511719 0.09429,0.164085 0.236337,0.301507 0.410156,0.416015 a 0.250025,0.250025 0 0 0 0.002,0.002 c 0.184558,0.118103 0.441804,0.222834 0.792969,0.337891 l 1.068359,0.349609 a 0.250025,0.250025 0 0 0 0.002,0 c 0.11064,0.03576 0.294511,0.111472 0.53711,0.226563 0.234535,0.110118 0.408286,0.223983 0.517578,0.326172 a 0.250025,0.250025 0 0 0 0.002,0.002 c 0.109366,0.1 0.193909,0.218777 0.255859,0.36914 a 0.250025,0.250025 0 0 0 0,0.002 c 0.06063,0.144758 0.08902,0.300198 0.08398,0.474609 -0.01108,0.384056 -0.175308,0.699628 -0.544922,0.998047 -0.04932,0.03978 -0.140282,0.02252 -0.193359,0.05664 0.29092,-0.226832 0.474452,-0.536875 0.484375,-0.880859 0.0089,-0.310198 -0.106467,-0.602925 -0.328125,-0.8125 a 0.250025,0.250025 0 0 0 -0.002,0 C 64.9819,56.601165 64.637168,56.441805 64.15625,56.285156 a 0.250025,0.250025 0 0 0 -0.002,0 l -1.023438,-0.328125 h -0.002 c -0.54803,-0.176749 -0.909179,-0.391993 -1.089844,-0.603515 -0.19451,-0.227734 -0.277626,-0.461573 -0.269531,-0.742188 0.0062,-0.215881 0.06977,-0.402514 0.203125,-0.583984 a 0.250025,0.250025 0 0 0 0.002,-0.002 c 0.128854,-0.177466 0.330833,-0.333668 0.625,-0.462891 0.0095,-0.0042 0.02169,-0.0018 0.03125,-0.0059 z m 10.853516,0.01563 0.417969,1.085937 C 73.748536,54.392375 73.607432,54.099481 73.400391,53.953125 73.187416,53.800666 72.900164,53.77577 72.621094,53.738281 l 0.691406,-0.01563 a 0.250025,0.250025 0 0 0 0.171875,-0.15039 z m -8.15625,0.05273 0.279297,1.279297 c -0.230174,-0.43717 -0.498203,-0.835631 -0.865235,-1.115235 0.03843,0.02856 0.08428,0.042 0.121094,0.07422 a 0.250025,0.250025 0 0 0 0.390625,-0.08203 z m 4.271484,0.04297 a 0.250025,0.250025 0 0 0 0.175782,0.134765 l 0.515625,-0.01172 c -0.077,0.02099 -0.179626,0.01599 -0.248047,0.04687 a 0.250025,0.250025 0 0 0 -0.002,0 c -0.218652,0.100145 -0.413815,0.262074 -0.587891,0.472656 -0.0648,0.07839 -0.102541,0.199035 -0.158203,0.291015 z m 2.333985,0.02734 c -0.0017,6.61e-4 -0.0022,0.0032 -0.0039,0.0039 -0.007,0.003 -0.0078,1.46e-4 -0.01563,0.0039 z m -0.771485,0.02344 0.02148,0.0098 c -0.0048,-0.0022 -0.0071,9.7e-5 -0.01172,-0.002 -0.0035,-0.0014 -0.0063,-0.0066 -0.0098,-0.0078 z m 0.708985,0.03711 c -0.05534,0.04055 -0.117765,0.07866 -0.142578,0.136719 a 0.250025,0.250025 0 0 0 -0.0059,0.01953 c -0.02817,0.08332 -0.02151,0.109732 -0.02344,0.166016 -0.0019,0.05628 -0.0019,0.124875 0,0.208984 l 0.08984,4 c 0.0045,0.198569 0.01057,0.328012 0.05078,0.455078 a 0.250025,0.250025 0 0 0 0.002,0.0078 c 0.03375,0.09406 0.08504,0.183815 0.164062,0.253906 0.01027,0.0091 0.02436,0.0094 0.03516,0.01758 l -0.806641,0.01758 c 0.07365,-0.05212 0.162343,-0.08554 0.203125,-0.166015 0.08157,-0.160966 0.08516,-0.323562 0.08008,-0.546875 l -0.09375,-4.085938 c -0.0015,-0.06791 -0.0041,-0.125215 -0.0098,-0.175781 -0.0052,-0.04643 -0.0082,-0.08607 -0.04102,-0.154297 -0.03241,-0.06995 -0.09507,-0.105728 -0.154297,-0.140625 z m 5.74414,3.333985 c 0.158451,0.265675 0.316157,0.533744 0.525391,0.730468 a 0.250025,0.250025 0 0 0 0.002,0.002 c 0.19412,0.180381 0.414016,0.283881 0.630859,0.398437 -0.116083,-0.05857 -0.211305,-0.0785 -0.339843,-0.162109 a 0.250025,0.250025 0 0 0 -0.378907,0.152343 l -0.04883,0.205079 z m -16,0.06641 c 0.122436,0.28492 0.243701,0.571984 0.425782,0.794922 0.167762,0.202967 0.371787,0.335081 0.570312,0.476562 -0.106245,-0.0727 -0.195455,-0.104591 -0.310547,-0.203125 a 0.250025,0.250025 0 0 0 -0.396484,0.101563 l -0.07617,0.197265 z m 17.566407,1.257812 c 0.123412,0.03698 0.246971,0.03082 0.371093,0.04687 -0.09861,-0.0097 -0.215608,0.0065 -0.304687,-0.01563 h -0.002 c -0.01843,-0.0048 -0.0455,-0.0256 -0.06445,-0.03125 z m -16.185547,0.261719 c 0.114718,0.05142 0.235512,0.06201 0.353515,0.09375 -0.09431,-0.02226 -0.211247,-0.02176 -0.294922,-0.05469 h -0.002 c -0.01699,-0.0069 -0.03928,-0.03131 -0.05664,-0.03906 z"
           id="path4" />
      </g>
    </g>
  </g>
</svg>
